<?xml version="1.0" encoding="utf-8"?><!DOCTYPE svg PUBLIC "-//W3C//DTD SVG 1.1//EN" "http://www.w3.org/Graphics/SVG/1.1/DTD/svg11.dtd"><svg viewBox="0 0 1000 1000" xmlns="http://www.w3.org/2000/svg" xmlns:xlink="http://www.w3.org/1999/xlink"><style>:root>svg{display:none}:root>svg:target{display:block}</style><svg fill="none" viewBox="0 0 25 25" id="_cross" xmlns="http://www.w3.org/2000/svg"><path d="M14.711 12.5l9.83-9.83a1.563 1.563 0 10-2.21-2.21l-9.83 9.83L2.668.46a1.563 1.563 0 10-2.21 2.21l9.83 9.83-9.83 9.832a1.563 1.563 0 102.21 2.21L12.5 14.71l9.831 9.83a1.559 1.559 0 002.21 0c.612-.61.612-1.6 0-2.21l-9.83-9.83z" fill="#000"/></svg><svg viewBox="0 0 1000 1000" id="basket" xmlns="http://www.w3.org/2000/svg"><path d="M773.4 969.2H226.6c-60.3 0-111.6-43.2-124.8-104.9L13.2 450.9c-9-41.7 1-84.3 27.3-116.8 24.3-30.1 59.9-47.3 97.5-47.3h724c37.6 0 73.1 17.2 97.5 47.3 26.3 32.5 36.3 75.1 27.3 116.8l-54.7 255.3c-4.9 23-27.3 37.8-50.7 32.7-23-4.9-37.7-27.6-32.7-50.7L903.4 433c3.5-16.4-.2-32.9-10.3-45.3-4.7-5.9-15-15.7-31.1-15.7H138c-16.1 0-26.4 9.8-31.1 15.7-10 12.4-13.8 28.9-10.3 45.3l88.6 413.4c4.7 22.1 21.7 37.5 41.4 37.5h546.8c19.7 0 36.7-15.4 41.4-37.4 4.9-23 27.6-38 50.6-32.8 23 4.9 37.7 27.6 32.8 50.6-13.2 61.8-64.5 104.9-124.8 104.9z"/><path d="M244 500c-7 0-14.1-1.7-20.7-5.4-20.6-11.5-28-37.4-16.6-58L420.1 52.8c11.4-20.6 37.4-28.1 58-16.6s28 37.4 16.6 58L281.3 478.1c-7.7 14-22.3 21.9-37.3 21.9z"/><path d="M756 500c-15 0-29.5-7.9-37.3-22L505.4 94.2c-11.5-20.6-4-46.5 16.6-58s46.6-4 58 16.6l213.3 383.9c11.5 20.6 4 46.5-16.6 58-6.6 3.6-13.7 5.3-20.7 5.3zM755.9 611.8H244.1c-23.6 0-42.7-20.1-42.7-43.7s19.1-43.7 42.7-43.7H756c23.6 0 42.7 20.1 42.7 43.7-.1 23.6-19.2 43.7-42.8 43.7zM670.6 782.1H329.4c-23.6 0-42.7-18.4-42.7-42s19.1-42 42.7-42h341.2c23.6 0 42.7 18.4 42.7 42 0 23.5-19.1 42-42.7 42z"/></svg><svg id="camera" version="1.1" viewBox="0 0 512 512" xml:space="preserve" xmlns="http://www.w3.org/2000/svg"><style>.cst0{fill:#232323}</style><path class="cst0" d="M500.4 312.9c6.4 0 11.7-5.2 11.7-11.7V178.6c0-26.3-21.4-47.7-47.7-47.7H351.3L329.8 82c-8.2-18.6-26.6-30.6-46.9-30.6h-46c-20.9 0-39.5 12.5-47.4 31.9l-19.4 47.6H47.7C21.4 130.9 0 152.3 0 178.6v236.7C0 441.6 21.4 463 47.7 463h416.7c26.3 0 47.7-21.4 47.7-47.7v-41.6c0-6.4-5.2-11.7-11.7-11.7-6.4 0-11.7 5.2-11.7 11.7v41.6c0 13.5-10.9 24.4-24.4 24.4H47.7c-13.5 0-24.4-10.9-24.4-24.4V178.6c0-13.5 10.9-24.4 24.4-24.4h122c1.4 0 2.8-.3 4-.8 1.4.5 2.8.8 4.2.8 4.6 0 9-2.7 10.8-7.3L211 92c4.3-10.6 14.4-17.4 25.8-17.4h46c11.1 0 21.1 6.5 25.5 16.7l24.6 55.9c2.3 5.3 8.1 8 13.6 6.6.9.2 1.8.4 2.7.4h115c13.5 0 24.4 10.9 24.4 24.4v122.7c.2 6.4 5.4 11.6 11.8 11.6z"/><path class="cst0" d="M336.7 331.3c5.9 2.5 12.8-.2 15.3-6.1 5.3-12.3 7.9-25.4 7.9-38.9 0-54.6-44.5-99.1-99.1-99.1s-99.1 44.4-99.1 99.1 44.4 99.1 99.1 99.1c14.1 0 27.7-2.9 40.5-8.6 5.9-2.6 8.5-9.5 5.9-15.4-2.6-5.9-9.6-8.5-15.4-5.9-9.8 4.4-20.2 6.6-30.9 6.6-41.8 0-75.8-34-75.8-75.8s34-75.8 75.8-75.8 75.8 34 75.8 75.8c0 10.3-2 20.3-6.1 29.7-2.6 5.9.2 12.8 6.1 15.3zM381.1 193.8c-6.4 0-11.7 5.2-11.7 11.7 0 6.4 5.2 11.7 11.7 11.7h64.8c6.4 0 11.7-5.2 11.7-11.7 0-6.4-5.2-11.7-11.7-11.7h-64.8z"/></svg><svg viewBox="0 0 256 256" id="circle" xmlns="http://www.w3.org/2000/svg"><path d="M128 26a102 102 0 10102 102A102.115 102.115 0 00128 26zm0 192a90 90 0 1190-90 90.102 90.102 0 01-90 90zm10-90a10 10 0 11-10-10 10.011 10.011 0 0110 10zm48 0a10 10 0 11-10-10 10.012 10.012 0 0110 10zm-96 0a10 10 0 11-10-10 10.011 10.011 0 0110 10z"/></svg><svg fill="#122538" viewBox="0 0 32 32" id="columns" xmlns="http://www.w3.org/2000/svg"><path d="M6 4v26h19V4H6zm18 25H7V5h17v24z"/><path d="M15.5 27A6.5 6.5 0 109 20.5a6.51 6.51 0 006.5 6.5zm0-12a5.5 5.5 0 11-5.5 5.5 5.51 5.51 0 015.5-5.5zM15.5 12A2.5 2.5 0 1013 9.5a2.5 2.5 0 002.5 2.5zm0-4A1.5 1.5 0 1114 9.5 1.5 1.5 0 0115.5 8z"/><path d="M15.5 23a2.5 2.5 0 10-2.5-2.5 2.5 2.5 0 002.5 2.5zm0-4a1.5 1.5 0 11-1.5 1.5 1.5 1.5 0 011.5-1.5z"/></svg><svg viewBox="0 0 1000 1000" id="compare" xmlns="http://www.w3.org/2000/svg"><path d="M482.18 112c-16.9 2.48-35.15 8.56-49.56 15.99-19.83 10.14-48.89 38.75-58.57 57.22l-6.76 13.07H168.82l-11.71 5.86c-42.35 21.18-42.13 79.98.68 102.95 8.79 4.73 11.49 4.96 109.71 5.63l100.7.68 7.44 13.97c9.24 17.12 32.44 40.55 51.59 51.82 24.11 14.19 41.45 18.47 74.12 18.47 24.78-.23 30.19-.9 44.61-6.08 33.57-12.17 61.05-34.47 77.95-63.3l8.79-15.09h95.07c110.16 0 112.42-.23 129.76-17.8 10.59-10.59 17.8-27.03 17.8-40.78 0-19.82-13.74-41.45-31.99-50.46l-11.72-5.86H633.15l-7.66-14.19c-11.94-21.63-38.3-46.41-61.28-57.45-10.36-4.96-23.88-10.14-29.74-11.49-12.64-2.94-42.38-4.97-52.29-3.16zm44.38 103.4c26.36 18.47 28.61 54.07 4.96 75.02-43.48 38.3-105.21-21.18-68.26-65.78 15.54-18.7 43.93-22.98 63.3-9.24zM208.46 345.16c-5.41 3.83-32.89 45.06-98.45 148.24C60 572.02 16.97 640.29 14.71 644.79c-9.69 18.25-3.83 72.09 11.94 110.61 19.15 47.09 57.68 88.09 104.09 111.3 44.38 22.3 100.48 27.93 148.69 15.54 86.06-22.3 149.36-94.17 161.08-182.48 1.58-10.81 2.25-26.58 1.8-34.69l-.68-15.09-95.52-150.72c-69.84-110.16-97.55-151.62-102.5-154.77-9.92-6.08-25.69-5.63-35.15.67zm88.53 201.86l69.39 109.71-139 .68c-76.37.22-139.45 0-139.9-.45-1.13-1.13 137.2-219.88 139-219.88.68 0 32.44 49.56 70.51 109.94zM756.8 344.49c-4.96 2.93-32.44 44.61-100.93 152.29-51.82 81.55-95.29 151.17-96.42 155-1.58 4.05-1.8 15.99-1.13 30.64 5.63 97.77 68.94 175.27 163.78 200.05 30.64 8.11 72.99 8.11 103.63 0 93.72-24.56 157.47-101.6 163.78-197.8.67-11.94.67-25.01-.23-29.29-2.25-11.71-187.89-303.68-197.35-310.22-9.45-6.3-25.22-6.75-35.13-.67zm86.96 200.95c37.85 59.7 69.16 109.26 69.39 110.39.45 1.13-59.92 2.03-139.23 2.03-78.62 0-139.68-.9-139.22-2.03 1.58-4.05 138.1-218.53 139.22-218.75.68 0 31.99 48.89 69.84 108.36z"/></svg><svg viewBox="0 0 24 24" id="drone" xmlns="http://www.w3.org/2000/svg"><path fill="#303C42" d="M19 9c-2.206 0-4-1.794-4-4s1.794-4 4-4 4 1.794 4 4-1.794 4-4 4zm0-7c-1.654 0-3 1.346-3 3s1.346 3 3 3 3-1.346 3-3-1.346-3-3-3zM5 9C2.794 9 1 7.206 1 5s1.794-4 4-4 4 1.794 4 4-1.794 4-4 4zm0-7C3.346 2 2 3.346 2 5s1.346 3 3 3 3-1.346 3-3-1.346-3-3-3zM19 23c-2.206 0-4-1.794-4-4s1.794-4 4-4 4 1.794 4 4-1.794 4-4 4zm0-7c-1.654 0-3 1.346-3 3s1.346 3 3 3 3-1.346 3-3-1.346-3-3-3zM5 23c-2.206 0-4-1.794-4-4s1.794-4 4-4 4 1.794 4 4-1.794 4-4 4zm0-7c-1.654 0-3 1.346-3 3s1.346 3 3 3 3-1.346 3-3-1.346-3-3-3z"/><path fill="#303C42" d="M18.116 19.82a.5.5 0 00.738.034l1-1a.499.499 0 00-.033-.738C19.792 18.093 17 15.706 17 12s2.792-6.093 2.82-6.116a.5.5 0 00.034-.738l-1-1a.5.5 0 00-.737.033C18.092 4.208 15.706 7 12 7S5.907 4.208 5.884 4.18a.5.5 0 00-.738-.034l-1 1a.499.499 0 00.033.738C4.208 5.907 7 8.294 7 12s-2.792 6.093-2.82 6.116a.5.5 0 00-.034.738l1 1a.5.5 0 00.737-.033C5.908 19.792 8.294 17 12 17s6.093 2.792 6.116 2.82z"/><path fill="#F3F3F3" d="M5.49 18.782l-.272-.271C6.074 17.645 8 15.326 8 12S6.074 6.355 5.218 5.49l.271-.272C6.355 6.074 8.674 8 12 8s5.645-1.926 6.51-2.782l.272.271C17.926 6.355 16 8.674 16 12s1.926 5.645 2.782 6.51l-.271.272C17.645 17.926 15.326 16 12 16s-5.645 1.926-6.51 2.782z"/><circle fill="#303C42" cx="12.002" cy="12" r="3"/><circle fill="#E6E6E5" cx="12.002" cy="12" r="2"/><path opacity=".5" fill="#FFF" d="M10.299 12.299c0-1.103.897-2 2-2 .476 0 .907.174 1.25.452a1.988 1.988 0 00-1.547-.749c-1.103 0-2 .897-2 2 0 .627.296 1.18.749 1.548a1.98 1.98 0 01-.452-1.251z"/><linearGradient id="ga" gradientUnits="userSpaceOnUse" x1="12.024" y1="12.026" x2="18.645" y2="18.647"><stop offset="0" stop-color="#010101" stop-opacity=".1"/><stop offset="1" stop-color="#010101" stop-opacity="0"/></linearGradient><path fill="url(#ga)" d="M18.782 18.51C17.926 17.646 16 15.327 16 12c0-.077.014-.145.016-.221l-1.804-1.803-.006.006c.49.534.796 1.24.796 2.02 0 1.654-1.346 3-3 3-.815 0-1.554-.33-2.095-.859l-.002.002 1.87 1.87c.077-.001.147-.015.225-.015 3.326 0 5.645 1.926 6.51 2.782l.272-.271z"/><linearGradient id="gb" gradientUnits="userSpaceOnUse" x1="-.056" y1="6.378" x2="24.056" y2="17.622"><stop offset="0" stop-color="#fff" stop-opacity=".2"/><stop offset="1" stop-color="#fff" stop-opacity="0"/></linearGradient><path fill="url(#gb)" d="M19 15c-.447 0-.87.09-1.271.226C17.313 14.322 17 13.236 17 12s.313-2.322.729-3.226C18.13 8.909 18.553 9 19 9c2.206 0 4-1.794 4-4s-1.794-4-4-4-4 1.794-4 4c0 .447.09.87.226 1.271C14.322 6.687 13.236 7 12 7s-2.322-.313-3.226-.729C8.909 5.87 9 5.447 9 5c0-2.206-1.794-4-4-4S1 2.794 1 5s1.794 4 4 4c.447 0 .87-.09 1.271-.226C6.687 9.678 7 10.764 7 12s-.313 2.322-.729 3.226A3.948 3.948 0 005 15c-2.206 0-4 1.794-4 4s1.794 4 4 4 4-1.794 4-4c0-.447-.09-.87-.226-1.271C9.678 17.313 10.764 17 12 17s2.322.313 3.226.729A3.948 3.948 0 0015 19c0 2.206 1.794 4 4 4s4-1.794 4-4-1.794-4-4-4zM5 8C3.346 8 2 6.654 2 5s1.346-3 3-3 3 1.346 3 3c0 .278-.05.542-.121.798-1.258-.76-1.982-1.603-1.995-1.619a.5.5 0 00-.738-.033l-1 1a.499.499 0 00.033.738c.016.013.859.737 1.62 1.994A2.96 2.96 0 015 8zm3 11c0 1.654-1.346 3-3 3s-3-1.346-3-3 1.346-3 3-3c.278 0 .542.05.798.121-.76 1.258-1.603 1.982-1.619 1.995a.5.5 0 00-.033.738l1 1a.5.5 0 00.737-.033c.014-.016.738-.859 1.996-1.62.07.257.121.52.121.799zm8-14c0-1.654 1.346-3 3-3s3 1.346 3 3-1.346 3-3 3a2.96 2.96 0 01-.798-.122c.76-1.257 1.603-1.981 1.619-1.994a.5.5 0 00.033-.738l-1-1a.5.5 0 00-.737.033c-.014.016-.738.859-1.995 1.62A2.96 2.96 0 0116 5zm3 17c-1.654 0-3-1.346-3-3 0-.278.05-.542.122-.798 1.257.76 1.981 1.603 1.994 1.619a.5.5 0 00.738.033l1-1a.499.499 0 00-.033-.738c-.016-.013-.859-.737-1.62-1.995A2.96 2.96 0 0119 16c1.654 0 3 1.346 3 3s-1.346 3-3 3z"/></svg><svg viewBox="0 0 408.78 408.79" id="facebook" xmlns="http://www.w3.org/2000/svg"><path d="M353.701 0H55.087C24.665 0 .002 24.662.002 55.085v298.616c0 30.423 24.662 55.085 55.085 55.085h147.275l.251-146.078h-37.951a8.954 8.954 0 01-8.954-8.92l-.182-47.087a8.955 8.955 0 018.955-8.989h37.882v-45.498c0-52.8 32.247-81.55 79.348-81.55h38.65a8.955 8.955 0 018.955 8.955v39.704a8.955 8.955 0 01-8.95 8.955l-23.719.011c-25.615 0-30.575 12.172-30.575 30.035v39.389h56.285c5.363 0 9.524 4.683 8.892 10.009l-5.581 47.087a8.955 8.955 0 01-8.892 7.901h-50.453l-.251 146.078h87.631c30.422 0 55.084-24.662 55.084-55.084V55.085C408.786 24.662 384.124 0 353.701 0z" fill="#475993"/></svg><svg viewBox="0 0 438.536 438.536" id="google" xmlns="http://www.w3.org/2000/svg"><path d="M365.449 109.631V36.545h-36.542v73.085H255.82v36.547h73.087v73.089h36.542v-73.089h73.083v210.131c0 22.647-8.042 42.018-24.126 58.102-16.077 16.084-35.446 24.126-58.095 24.126H222.697c7.419-13.894 11.129-28.835 11.129-44.823 0-12.566-2.095-24.223-6.276-34.975-4.188-10.749-9.471-19.602-15.847-26.549a297.32 297.32 0 00-20.555-20.27c-7.329-6.563-14.178-12.228-20.557-16.991-6.374-4.753-11.658-9.944-15.843-15.554-4.187-5.623-6.279-11.283-6.279-16.991 0-6.854 2.19-13.325 6.567-19.417 4.38-6.088 9.71-11.94 15.987-17.556 6.279-5.619 12.515-11.755 18.702-18.42 6.186-6.658 11.466-15.511 15.843-26.549 4.38-11.038 6.567-23.507 6.567-37.404 0-13.894-2.522-27.74-7.564-41.54s-12.231-25.078-21.556-33.835c-1.142-1.138-2.474-2.185-3.997-3.14-1.521-.95-2.714-1.667-3.568-2.141-.859-.478-1.809-1.381-2.855-2.712-1.049-1.331-2.046-2.95-2.996-4.853h38.543l38.546-18.272H121.913c-26.267 0-49.536 3.662-69.805 10.994C31.84 54.866 14.469 67.572.003 85.651c0-23.984 7.708-44.252 23.124-60.813C38.547 8.276 58.243 0 82.228 0h274.084c22.648 0 42.018 8.042 58.095 24.123 16.084 16.084 24.126 35.453 24.126 58.102v27.406h-73.084zM56.821 208.56c6.086 7.904 13.513 14.326 22.267 19.274s17.983 7.419 27.694 7.419c18.464 0 31.833-5.763 40.114-17.276 8.28-11.511 12.419-26.787 12.419-45.821 0-11.613-1.524-23.791-4.563-36.54-3.047-12.751-7.52-25.122-13.421-37.113-5.9-11.991-13.894-21.892-23.982-29.696-10.085-7.804-21.411-11.708-33.974-11.708-17.701 0-31.455 6.567-41.258 19.7-9.801 13.134-14.703 28.835-14.703 47.11 0 8.942 1.093 18.361 3.284 28.262 2.19 9.898 5.568 19.799 10.138 29.696 4.564 9.897 9.894 18.795 15.985 26.693zm35.114 66.952c0-4.757 1.997-12.946 5.996-24.558-7.233.951-13.894 1.431-19.985 1.431-32.355 0-58.336-11.232-77.941-33.69v123.624c28.737-14.852 65.378-22.935 109.918-24.27-11.993-15.612-17.988-29.786-17.988-42.537zm97.632 120.904c-.953-3.135-2.618-6.416-4.996-9.849-2.38-3.422-4.377-6.324-5.996-8.706-1.617-2.375-4.139-5.182-7.566-8.418-3.424-3.234-6.042-5.661-7.851-7.279-1.807-1.619-4.853-4.042-9.135-7.279-4.278-3.237-7.233-5.428-8.848-6.563-1.615-1.144-4.755-3.333-9.419-6.57s-7.566-5.236-8.708-5.996c-3.235-.376-7.898-.567-13.99-.567-10.466 0-20.651.66-30.546 1.994-9.9 1.332-20.083 3.614-30.551 6.852-10.467 3.237-19.984 7.943-28.549 14.13-8.564 6.188-15.131 13.559-19.702 22.128 5.142 17.316 14.993 31.354 29.552 42.106 14.564 10.759 30.883 16.136 48.966 16.136H190.72c1.903-6.28 2.853-13.042 2.853-20.27 0-3.997-.428-7.851-1.293-11.563a158.148 158.148 0 00-2.713-10.286z"/></svg><svg viewBox="0 0 512 512" id="google1" xmlns="http://www.w3.org/2000/svg"><path d="M42.4 145.9c15.5-32.3 37.4-59.6 65-82.3 37.4-30.9 80.3-49.5 128.4-55.2 56.5-6.7 109.6 4 158.7 33.4 12.2 7.3 23.6 15.6 34.5 24.6 2.7 2.2 2.4 3.5.1 5.7-22.3 22.2-44.6 44.4-66.7 66.8-2.6 2.6-4 2.4-6.8.3-64.8-49.9-159.3-36.4-207.6 29.6-8.5 11.6-15.4 24.1-20.2 37.7-.4 1.2-1.2 2.3-1.8 3.5-12.9-9.8-25.9-19.6-38.7-29.5-15-11.5-30-23-44.9-34.6z" fill="#E94335"/><path d="M126 303.8c4.3 9.5 7.9 19.4 13.3 28.3 22.7 37.2 55.1 61.1 97.8 69.6 38.5 7.7 75.5 2.5 110-16.8 1.2-.6 2.4-1.2 3.5-1.8.6.6 1.1 1.3 1.7 1.8 25.8 20 51.7 40 77.5 60-12.4 12.3-26.5 22.2-41.5 30.8-43.5 24.8-90.6 34.8-140.2 31-61.8-4.8-115.1-29.2-159.1-73.2-19.3-19.3-35.2-41.1-46.7-66 10.7-8.2 21.4-16.3 32.1-24.5 17.2-13.1 34.4-26.1 51.6-39.2z" fill="#34A853"/><path d="M429.9 444.9c-25.8-20-51.7-40-77.5-60-.6-.5-1.2-1.2-1.7-1.8 8.9-6.9 18-13.6 25.3-22.4 12.2-14.6 20.3-31.1 24.5-49.6.5-2.3.1-3.1-2.2-3-1.2.1-2.3 0-3.5 0-40.8 0-81.7-.1-122.5.1-4.5 0-5.5-1.2-5.4-5.5.2-29 .2-58 0-87 0-3.7 1-4.7 4.7-4.7 74.8.1 149.6.1 224.5 0 3.2 0 4.5.8 5.3 4.2 6.1 27.5 5.7 55.1 2 82.9-3 22.2-8.4 43.7-16.7 64.5-12.3 30.7-30.4 57.5-54.2 80.5-.9.7-1.8 1.2-2.6 1.8z" fill="#4285F3"/><path d="M126 303.8c-17.2 13.1-34.4 26.1-51.6 39.2-10.7 8.1-21.4 16.3-32.1 24.5-8.3-15.4-13.7-31.7-18.1-48.5-8.4-32.5-9.7-65.5-5.1-98.6 3.6-26 11.1-51 23.2-74.4 15 11.5 29.9 23.1 44.9 34.6 12.9 9.9 25.8 19.7 38.7 29.5-2.2 10.7-5.3 21.2-6.3 32.2-1.8 20 .1 39.5 5.8 58.7.4.8.5 1.8.6 2.8z" fill="#FABB06"/></svg><svg viewBox="0 0 128 128" data-name="Layer 2" id="headphones" xmlns="http://www.w3.org/2000/svg"><path d="M123.25 64a59.076 59.076 0 00-21.484-45.658 59.264 59.264 0 00-75.53 0A59.223 59.223 0 008.552 84.861a14.208 14.208 0 00-2.4 15.784l6.978 14.547a14.172 14.172 0 0018.935 6.659l1.476-.708a1.726 1.726 0 00.352-.231 6.925 6.925 0 008.4-9.587L26.322 78.063a6.918 6.918 0 00-10.678-2.334 49.707 49.707 0 0116.011-49.47 5.081 5.081 0 002.316.584 5.19 5.19 0 003.015-.973 46.641 46.641 0 0154.029 0 5.125 5.125 0 005.34.4 49.706 49.706 0 0116 49.461 6.918 6.918 0 00-10.678 2.334l-15.967 33.26a6.912 6.912 0 008.4 9.588 1.765 1.765 0 00.352.23l1.476.709a14.194 14.194 0 0018.935-6.66l6.978-14.547a14.208 14.208 0 00-2.4-15.784A58.687 58.687 0 00123.25 64zM22.375 119.142a10.625 10.625 0 01-6.093-5.463L9.305 99.131a10.7 10.7 0 014.915-14.215l16.225 33.828a10.621 10.621 0 01-8.07.398zm-3.8-41.175a3.408 3.408 0 011.482-.339 3.445 3.445 0 013.105 1.95l15.973 33.262a3.438 3.438 0 11-6.2 2.975L17 82.615l-.029-.062a3.435 3.435 0 011.611-4.586zM10.75 64a53.2 53.2 0 002.461 16.018 6.882 6.882 0 00-.064 1.53l-.339.162a14.268 14.268 0 00-1.406.782 55.73 55.73 0 0115.843-60.386L29 23.93A53.033 53.033 0 0010.75 64zm82.294-40.981a50.139 50.139 0 00-58.088 0 1.646 1.646 0 01-2.154-.182l-2.862-2.978a55.769 55.769 0 0168.12 0l-2.86 2.977a1.646 1.646 0 01-2.156.183zM99 23.93l1.753-1.824A55.73 55.73 0 01116.6 82.492a14.268 14.268 0 00-1.406-.782l-.339-.163a6.873 6.873 0 00-.064-1.529A53.179 53.179 0 0099 23.93zm-8.526 93.5a3.441 3.441 0 01-1.611-4.586l15.968-33.262a3.445 3.445 0 013.105-1.95 3.437 3.437 0 013.093 4.925l-.029.062-15.939 33.2a3.436 3.436 0 01-4.587 1.611zm28.219-18.3l-6.977 14.548a10.691 10.691 0 01-14.163 5.065l16.227-33.827a10.7 10.7 0 014.92 14.215z"/></svg><svg viewBox="0 0 404.375 404.375" id="left-arrow" xmlns="http://www.w3.org/2000/svg"><path d="M295.707 0c4.18 0 7.837 1.567 10.971 4.702 6.27 6.27 6.27 16.196 0 21.943L130.613 202.188 306.678 377.73c6.27 6.27 6.27 16.196 0 21.943-6.269 6.27-16.196 6.27-21.943 0L97.698 213.16c-3.135-3.135-4.702-6.792-4.702-10.97 0-4.18 1.567-8.36 4.702-10.972L284.735 4.702C287.87 1.567 291.527 0 295.707 0z" fill="#00bbd3" data-original="#00bbd3"/></svg><svg fill="none" viewBox="0 0 18 15" id="mail-grey" xmlns="http://www.w3.org/2000/svg"><path d="M1 4.228l6.604 4.601c.275.192.598.294.929.294.33 0 .654-.102.93-.294l6.603-4.601M2.674 13.85h11.718c.444 0 .87-.185 1.184-.513a1.79 1.79 0 00.49-1.237V3.353a1.79 1.79 0 00-.49-1.237 1.638 1.638 0 00-1.184-.512H2.674c-.444 0-.87.184-1.184.512A1.79 1.79 0 001 3.353v8.748c0 .464.176.909.49 1.237.314.328.74.513 1.184.513z" stroke="#243F4D" stroke-width="2" stroke-linecap="round" stroke-linejoin="round"/></svg><svg viewBox="0 0 63.019 63.019" id="memory" xmlns="http://www.w3.org/2000/svg"><path d="M50.052 63.019H12.17c-3.134 0-5.161-2.287-5.161-5.207V5.796C7.009 2.708 9.194 0 12.17 0h25.181c.428 0 .838.183 1.122.505l16.944 18.877c.244.275.592.629.592.996v37.434c0 2.969-2.805 5.207-5.957 5.207zM12.17 3c-1.33 0-2.161 1.359-2.161 2.796v52.016c0 1.448.875 2.206 2.161 2.206h37.882c1.258 0 2.957-.758 2.957-2.206V20.947L36.676 3H12.17z"/><path d="M33.509 27.508a1.5 1.5 0 01-1.5-1.501V9.002a1.5 1.5 0 013 0v17.005a1.5 1.5 0 01-1.5 1.501zM25.509 27.508a1.5 1.5 0 01-1.5-1.501V9.002a1.5 1.5 0 013 0v17.005a1.5 1.5 0 01-1.5 1.501zM17.509 27.508a1.5 1.5 0 01-1.5-1.501V9.002a1.5 1.5 0 013 0v17.005a1.5 1.5 0 01-1.5 1.501z"/></svg><svg viewBox="0 0 384.97 384.97" id="menu-dropdown" xmlns="http://www.w3.org/2000/svg"><path d="M144.364 0H24.061C10.767 0 0 10.767 0 24.061v120.303c0 13.281 10.767 24.061 24.061 24.061h120.303c13.293 0 24.061-10.779 24.061-24.061V24.061C168.424 10.767 157.657 0 144.364 0zm0 144.364H24.061V24.061h120.303v120.303zM360.909 0H240.606c-13.293 0-24.061 10.767-24.061 24.061v120.303c0 13.281 10.767 24.061 24.061 24.061h120.303c13.281 0 24.061-10.779 24.061-24.061V24.061C384.97 10.767 374.191 0 360.909 0zm0 144.364H240.606V24.061h120.303v120.303zM360.909 216.545H240.606c-13.293 0-24.061 10.779-24.061 24.061v120.303c0 13.293 10.767 24.061 24.061 24.061h120.303c13.281 0 24.061-10.767 24.061-24.061V240.606c0-13.293-10.779-24.061-24.061-24.061zm0 144.364H240.606V240.606h120.303v120.303zM144.364 216.545H24.061C10.767 216.545 0 227.325 0 240.606v120.303c0 13.293 10.767 24.061 24.061 24.061h120.303c13.293 0 24.061-10.767 24.061-24.061V240.606c-.001-13.293-10.768-24.061-24.061-24.061zm0 144.364H24.061V240.606h120.303v120.303z"/></svg><svg viewBox="0 0 484.5 484.5" id="micoff" xmlns="http://www.w3.org/2000/svg"><path d="M420.75 229.5H377.4c0 17.85-5.101 35.7-10.2 51l30.6 30.6c15.3-22.95 22.95-51 22.95-81.6zM318.75 234.6V76.5c0-43.35-33.15-76.5-76.5-76.5s-76.5 33.15-76.5 76.5v5.1l153 153zM45.9 25.5L12.75 58.65l153 153v17.85c0 43.35 33.15 76.5 76.5 76.5 5.1 0 10.2 0 17.85-2.55l43.351 43.35c-17.851 7.65-38.25 12.75-58.65 12.75-71.4 0-135.15-53.55-135.15-130.05h-45.9c0 86.7 68.85 158.1 153 170.85v84.15h51v-84.15c22.95-2.55 45.9-12.75 63.75-22.949l107.1 107.1 33.15-33.15L45.9 25.5z"/></svg><svg viewBox="0 0 484.5 484.5" id="micon" xmlns="http://www.w3.org/2000/svg"><path d="M242.25 306c43.35 0 76.5-33.15 76.5-76.5v-153c0-43.35-33.15-76.5-76.5-76.5s-76.5 33.15-76.5 76.5v153c0 43.35 33.15 76.5 76.5 76.5zm135.15-76.5c0 76.5-63.75 130.05-135.15 130.05S107.1 306 107.1 229.5H63.75c0 86.7 68.85 158.1 153 170.85v84.15h51v-84.15c84.15-12.75 153-84.149 153-170.85H377.4z"/></svg><svg viewBox="0 0 512 512" id="phone-case" xmlns="http://www.w3.org/2000/svg"><path d="M147.451 28.49H90.654C75.35 28.49 62.9 40.941 62.9 56.245s12.45 27.753 27.753 27.753h56.797c15.304 0 27.753-12.45 27.753-27.753S162.754 28.49 147.451 28.49zm0 40.508H90.654c-7.033 0-12.754-5.722-12.754-12.754 0-7.033 5.722-12.755 12.754-12.755h56.797c7.033 0 12.754 5.722 12.754 12.755-.001 7.032-5.722 12.754-12.754 12.754zM169.332 123.223c-22.431.001-40.68 18.25-40.68 40.68 0 22.431 18.25 40.68 40.68 40.68s40.68-18.249 40.68-40.68-18.25-40.68-40.68-40.68zm-.001 66.362c-14.16 0-25.68-11.521-25.68-25.68.001-14.161 11.521-25.68 25.68-25.68s25.68 11.521 25.68 25.68-11.52 25.68-25.68 25.68z"/><path d="M470.034 83.998a7.5 7.5 0 007.5-7.5V50.153c0-27.652-22.497-50.149-50.15-50.149H265.979c-.052 0-.102-.004-.154-.004H72.838C51.68 0 34.466 17.214 34.466 38.372v355.844c0 4.143 3.358 7.5 7.5 7.5s7.5-3.357 7.5-7.5V38.372C49.466 25.484 59.951 15 72.838 15c2.034 0 192.586-.001 193.072.002 12.714 0 23.287 10.518 23.287 23.37-.043 455.757.109 435.335-.12 437.592a23.02 23.02 0 01-.257 1.779l-.021.118c-1.626 8.591-8.12 16.171-18.159 18.596-3.973.835-5.759.366-20.294.501v-8.215c0-10.752-8.747-19.5-19.5-19.5h-10.835c-4.142 0-7.5 3.357-7.5 7.5s3.358 7.5 7.5 7.5h10.835c2.439 0 4.5 2.061 4.5 4.5v8.215h-132.03v-8.215c0-2.439 2.061-4.5 4.5-4.5h77.194c4.142 0 7.5-3.357 7.5-7.5s-3.358-7.5-7.5-7.5h-77.194c-10.752 0-19.5 8.748-19.5 19.5v8.215h-15.48c-12.888 0-23.372-10.485-23.372-23.372v-44.368c0-4.143-3.358-7.5-7.5-7.5s-7.5 3.357-7.5 7.5v44.368c0 21.159 17.214 38.372 38.372 38.372 211.396 0 195.104.306 200.34-.715H427.38c27.652 0 50.15-22.497 50.15-50.149V111.497a7.5 7.5 0 00-7.5-7.5 7.499 7.499 0 00-7.5 7.5v349.595c0 19.382-15.769 35.149-35.15 35.149H296.804a38.775 38.775 0 005.888-12h124.691c12.766 0 23.15-10.385 23.15-23.149V50.153c0-12.766-10.386-23.149-23.15-23.149H302.476a38.288 38.288 0 00-6.247-12h131.154c19.383 0 35.15 15.769 35.15 35.149v26.345a7.5 7.5 0 007.501 7.5zM304.196 42.003h123.187c4.495 0 8.151 3.656 8.151 8.15v410.939c0 4.494-3.656 8.15-8.151 8.15H304.196V42.003z"/></svg><svg fill="none" viewBox="0 0 20 26" id="phone-grey" xmlns="http://www.w3.org/2000/svg"><g filter="url(#sfilter0_d)"><path d="M14.01.236H5.64a1.17 1.17 0 00-.846.366c-.224.235-.35.553-.35.884v14.996c0 .332.126.65.35.884.224.234.528.366.846.366h8.37c.317 0 .62-.132.845-.366a1.28 1.28 0 00.35-.884V1.486c0-.331-.126-.65-.35-.884a1.17 1.17 0 00-.845-.366zm-3.588 16.246H9.227v-1.25h1.195v1.25zM5.64 13.983V1.486h8.37v12.497H5.64z" fill="#243F4D"/><path d="M10.422 16.982h.5v-2.25H8.727v2.25h1.695zM5.14 13.983v.5h9.37V.986H5.14v12.997zM5.64.736h8.37a.67.67 0 01.484.212c.133.14.211.332.211.538v14.996a.779.779 0 01-.211.538.67.67 0 01-.484.212H5.64a.67.67 0 01-.485-.212.779.779 0 01-.211-.538V1.486c0-.206.078-.399.211-.538A.67.67 0 015.64.736z" stroke="#243F4D"/></g><defs><filter id="sfilter0_d" x=".444" y=".236" width="18.761" height="25.496" filterUnits="userSpaceOnUse" color-interpolation-filters="sRGB"><feFlood flood-opacity="0" result="BackgroundImageFix"/><feColorMatrix in="SourceAlpha" values="0 0 0 0 0 0 0 0 0 0 0 0 0 0 0 0 0 0 127 0"/><feOffset dy="4"/><feGaussianBlur stdDeviation="2"/><feColorMatrix values="0 0 0 0 0 0 0 0 0 0 0 0 0 0 0 0 0 0 0.25 0"/><feBlend in2="BackgroundImageFix" result="effect1_dropShadow"/><feBlend in="SourceGraphic" in2="effect1_dropShadow" result="shape"/></filter></defs></svg><svg viewBox="0 0 64 64" id="powerbank" xmlns="http://www.w3.org/2000/svg"><path d="M28.628 55.51l1.744.98 10.11-17.973-12.54 2.893L38.3 27.6l-1.6-1.2-13.642 18.19 13.46-3.107zM49 25h-6v6h6v-6zm-2 4h-2v-2h2v2zM49 34h-6v6h6v-6zm-2 4h-2v-2h2v2zM49 43h-6v6h6v-6zm-2 4h-2v-2h2v2z"/><path d="M52.762 3H41.238C37.798 3 35 6.112 35 9.938v3.285h-4V19H17c-3.309 0-6 2.691-6 6v30c0 3.309 2.691 6 6 6h30c3.309 0 6-2.691 6-6V25c0-3.309-2.691-6-6-6h-5v-5.778h-5V9.938C37 7.215 38.901 5 41.238 5h11.523C55.099 5 57 7.215 57 9.938V61h2V9.938C59 6.112 56.202 3 52.762 3zM51 25v30c0 2.206-1.794 4-4 4H17c-2.206 0-4-1.794-4-4V25c0-2.206 1.794-4 4-4h30c2.206 0 4 1.794 4 4zm-11-6h-7v-3.778h7V19z"/></svg><svg viewBox="0 0 404.375 404.375" id="rigth-arrow" xmlns="http://www.w3.org/2000/svg"><path d="M108.669 404.375c-4.18 0-7.837-1.567-10.971-4.702-6.269-6.269-6.269-16.196 0-21.943l176.065-175.543L97.698 26.645c-6.269-6.269-6.269-16.196 0-21.943 6.269-6.269 16.196-6.269 21.943 0l187.037 186.514c3.135 3.135 4.702 6.792 4.702 10.971 0 4.18-1.567 8.359-4.702 10.971L119.641 399.673c-3.135 3.135-6.792 4.702-10.972 4.702z" fill="#00bbd3"/></svg><svg id="smartphone" version="1.1" viewBox="0 0 750 750" xml:space="preserve" xmlns="http://www.w3.org/2000/svg"><style>.vst0{fill:#414042}</style><path class="vst0" d="M447.3 61.5h-97c-6.9 0-12.5 5.6-12.5 12.5s5.6 12.5 12.5 12.5h97c6.9 0 12.5-5.6 12.5-12.5s-5.6-12.5-12.5-12.5z"/><circle class="vst0" cx="315" cy="74" r="12.3"/><path class="vst0" d="M515.5 26.5h-281c-23.7 0-43 19.3-43 43v611.1c0 23.7 19.3 43 43 43h281c23.7 0 43-19.3 43-43V69.5c0-23.7-19.3-43-43-43zm18 654c0 9.9-8.1 18-18 18h-281c-9.9 0-18-8.1-18-18v-67.1h317v67.1zm0-92.1h-317V124.1h317v464.3zm0-489.3h-317V69.5c0-9.9 8.1-18 18-18h281c9.9 0 18 8.1 18 18v29.6z"/><path class="vst0" d="M375 694.7c21.7 0 39.3-17.7 39.3-39.3S396.7 616 375 616s-39.3 17.7-39.3 39.3 17.6 39.4 39.3 39.4zm0-53.7c7.9 0 14.3 6.4 14.3 14.3s-6.4 14.3-14.3 14.3-14.3-6.4-14.3-14.3S367.1 641 375 641z"/></svg><svg fill="none" viewBox="0 0 12 18" id="tel" xmlns="http://www.w3.org/2000/svg"><path d="M10.01.236H1.64a1.17 1.17 0 00-.846.366c-.224.235-.35.553-.35.884v14.996c0 .332.126.65.35.884.224.234.528.366.846.366h8.37c.317 0 .62-.132.845-.366a1.28 1.28 0 00.35-.884V1.486c0-.331-.126-.65-.35-.884a1.17 1.17 0 00-.845-.366zM6.422 16.482H5.227v-1.25h1.195v1.25zM1.64 13.983V1.486h8.37v12.497H1.64z" fill="#fff"/></svg><svg viewBox="0 0 16 16.03" id="user" xmlns="http://www.w3.org/2000/svg"><path d="M11.26 9.57l-2.164-.71c-.266-.09-.355-.267-.326-.564h-.059c.622-.592 1.037-1.126 1.037-1.985 0-1.126-.77-2.104-1.718-2.104-.949 0-1.719 1.008-1.719 2.134 0 .859.415 1.363 1.037 1.955H7.26c.03.297-.089.474-.385.534l-2.163.918c-.267.119-.622.356-.622.652v1.155h7.704V10.4c.059-.296-.237-.711-.534-.83z"/><path d="M8 16.03c-4.415 0-8-3.586-8-8V8c0-4.415 3.585-8 8-8s8 3.585 8 8v.03c0 4.414-3.585 8-8 8zM8 .593A7.41 7.41 0 00.593 8v.03A7.41 7.41 0 008 15.437a7.41 7.41 0 007.407-7.407V8A7.41 7.41 0 008 .593z"/></svg><svg viewBox="-59 0 498 498.001" id="watch" xmlns="http://www.w3.org/2000/svg"><path d="M262.254 0H81.91a39.738 39.738 0 00-28.207 11.57A39.75 39.75 0 0042 39.723V52.64C17.84 56.586.074 77.426 0 101.906v293.188c.074 24.48 17.84 45.32 42 49.265v13.918a39.743 39.743 0 0011.703 28.153A39.738 39.738 0 0081.91 498h180.344a39.612 39.612 0 0028.14-11.59A39.59 39.59 0 00302 458.277v-13.824c24.242-3.867 42.063-24.808 42-49.36V362.72c17-.364 30-13.668 30-29.985v-31.39c0-16.317-13-29.621-30-29.985V229h5.613c16.688-.117 30.207-13.578 30.387-30.266v-41.39c-.172-16.703-13.684-30.196-30.387-30.344H344v-25.094c.063-24.55-17.758-45.488-42-49.36V39.724A39.596 39.596 0 00262.254 0zM354 301.344v31.39c0 5.286-5 9.614-10 9.965v-51.324c5 .352 10 4.684 10 9.969zM349.613 147A10.645 10.645 0 01360 157.344v41.39c-.164 5.645-4.738 10.164-10.387 10.266H344v-62zM81.91 20h180.344A19.57 19.57 0 01282 39.723V52H62V39.723a19.7 19.7 0 015.84-14.016A19.706 19.706 0 0181.91 20zm180.344 458H81.91a19.69 19.69 0 01-14.07-5.707A19.694 19.694 0 0162 458.277V445h220v13.277A19.573 19.573 0 01262.254 478zM324 395c0 16.57-13.43 30-30 30H50c-16.566 0-30-13.43-30-30V102c0-16.566 13.434-30 30-30h244c16.57 0 30 13.434 30 30zm0 0"/><path d="M308 98c0-5.523-4.477-10-10-10H46c-5.523 0-10 4.477-10 10v301c0 5.523 4.477 10 10 10h252c5.523 0 10-4.477 10-10zM56 108h232v281H56zm0 0"/><path d="M254.219 216.035c-1.438-12.61-12.145-22.113-24.836-22.035h-15.594a9.453 9.453 0 00-9.79 9.559V226h-61.999v-22.441a9.453 9.453 0 00-9.79-9.559h-15.593c-12.691-.074-23.398 9.422-24.836 22.031-13.707.04-24.797 11.172-24.781 24.883v13.7c-.016 13.648 10.977 24.753 24.625 24.878.188 13.645 11.344 24.586 24.992 24.508h15.594a9.453 9.453 0 009.79-9.559V272h61.999v22.441a9.453 9.453 0 009.79 9.559h15.593c13.648.078 24.804-10.863 24.992-24.512 13.648-.12 24.64-11.226 24.625-24.875v-13.699c.016-13.71-11.074-24.84-24.781-24.879zM87 254.613v-13.699a5.08 5.08 0 015-5.07v23.836a5.08 5.08 0 01-5-5.067zM122 284h-5.383a4.351 4.351 0 01-4.617-4.664v-60.672a4.358 4.358 0 011.246-3.383 4.365 4.365 0 013.371-1.281H122zm20-32v-6h62v6zm92 27.336a4.344 4.344 0 01-1.246 3.383 4.346 4.346 0 01-3.371 1.281H224v-70h5.383a4.36 4.36 0 013.37 1.281 4.344 4.344 0 011.247 3.383zm25-24.723a5.077 5.077 0 01-5 5.067v-23.832a5.077 5.077 0 015 5.066zm0 0"/></svg></svg>