<?xml version="1.0" encoding="utf-8"?>
<!-- Svg Vector Icons : http://www.onlinewebfonts.com/icon -->
<!DOCTYPE svg PUBLIC "-//W3C//DTD SVG 1.1//EN" "http://www.w3.org/Graphics/SVG/1.1/DTD/svg11.dtd">
<svg version="1.1" xmlns="http://www.w3.org/2000/svg" xmlns:xlink="http://www.w3.org/1999/xlink" x="0px" y="0px" viewBox="0 0 1000 1000" enable-background="new 0 0 1000 1000" xml:space="preserve">
<metadata> Svg Vector Icons : http://www.onlinewebfonts.com/icon </metadata>
<g><path d="M773.4,969.2H226.6c-60.3,0-111.6-43.2-124.8-104.9L13.2,450.9c-9-41.7,1-84.3,27.3-116.8c24.3-30.1,59.9-47.3,97.5-47.3h724c37.6,0,73.1,17.2,97.5,47.3c26.3,32.5,36.3,75.1,27.3,116.8l-54.7,255.3c-4.9,23-27.3,37.8-50.7,32.7c-23-4.9-37.7-27.6-32.7-50.7L903.4,433c3.5-16.4-0.2-32.9-10.3-45.3c-4.7-5.9-15-15.7-31.1-15.7H138c-16.1,0-26.4,9.8-31.1,15.7c-10,12.4-13.8,28.9-10.3,45.3l88.6,413.4c4.7,22.1,21.7,37.5,41.4,37.5h546.8c19.7,0,36.7-15.4,41.4-37.4c4.9-23,27.6-38,50.6-32.8c23,4.9,37.7,27.6,32.8,50.6C885,926.1,833.7,969.2,773.4,969.2z"/><path d="M244,500c-7,0-14.1-1.7-20.7-5.4c-20.6-11.5-28-37.4-16.6-58L420.1,52.8c11.4-20.6,37.4-28.1,58-16.6c20.6,11.5,28,37.4,16.6,58L281.3,478.1C273.6,492.1,259,500,244,500z"/><path d="M756,500c-15,0-29.5-7.9-37.3-22L505.4,94.2c-11.5-20.6-4-46.5,16.6-58c20.6-11.5,46.6-4,58,16.6l213.3,383.9c11.5,20.6,4,46.5-16.6,58C770.1,498.3,763,500,756,500z"/><path d="M755.9,611.8H244.1c-23.6,0-42.7-20.1-42.7-43.7c0-23.6,19.1-43.7,42.7-43.7h511.9c23.6,0,42.7,20.1,42.7,43.7C798.6,591.7,779.5,611.8,755.9,611.8z"/><path d="M670.6,782.1H329.4c-23.6,0-42.7-18.4-42.7-42c0-23.6,19.1-42,42.7-42h341.2c23.6,0,42.7,18.4,42.7,42C713.3,763.6,694.2,782.1,670.6,782.1z"/></g>
</svg>