<?xml version="1.0" ?><svg id="Capa_1" style="enable-background:new 0 0 512 512;" version="1.1" viewBox="0 0 512 512" xml:space="preserve" xmlns="http://www.w3.org/2000/svg" xmlns:xlink="http://www.w3.org/1999/xlink"><style type="text/css">
	.st0{fill:#232323;}
</style><g><path class="st0" d="M500.4,312.9c6.4,0,11.7-5.2,11.7-11.7V178.6c0-26.3-21.4-47.7-47.7-47.7H351.3L329.8,82   c-8.2-18.6-26.6-30.6-46.9-30.6h-46c-20.9,0-39.5,12.5-47.4,31.9l-19.4,47.6c-0.1,0-0.3,0-0.4,0h-122C21.4,130.9,0,152.3,0,178.6   v236.7C0,441.6,21.4,463,47.7,463h416.7c26.3,0,47.7-21.4,47.7-47.7v-41.6c0-6.4-5.2-11.7-11.7-11.7c-6.4,0-11.7,5.2-11.7,11.7   v41.6c0,13.5-10.9,24.4-24.4,24.4H47.7c-13.5,0-24.4-10.9-24.4-24.4V178.6c0-13.5,10.9-24.4,24.4-24.4h122c1.4,0,2.8-0.3,4-0.8   c1.4,0.5,2.8,0.8,4.2,0.8c4.6,0,9-2.7,10.8-7.3l22.3-54.9c4.3-10.6,14.4-17.4,25.8-17.4h46c11.1,0,21.1,6.5,25.5,16.7l24.6,55.9   c2.3,5.3,8.1,8,13.6,6.6c0.9,0.2,1.8,0.4,2.7,0.4h115c13.5,0,24.4,10.9,24.4,24.4v122.7C488.8,307.7,494,312.9,500.4,312.9z"/><path class="st0" d="M336.7,331.3c5.9,2.5,12.8-0.2,15.3-6.1c5.3-12.3,7.9-25.4,7.9-38.9c0-54.6-44.5-99.1-99.1-99.1   s-99.1,44.4-99.1,99.1s44.4,99.1,99.1,99.1c14.1,0,27.7-2.9,40.5-8.6c5.9-2.6,8.5-9.5,5.9-15.4c-2.6-5.9-9.6-8.5-15.4-5.9   c-9.8,4.4-20.2,6.6-30.9,6.6c-41.8,0-75.8-34-75.8-75.8s34-75.8,75.8-75.8s75.8,34,75.8,75.8c0,10.3-2,20.3-6.1,29.7   C328,321.9,330.8,328.8,336.7,331.3z"/><path class="st0" d="M381.1,193.8c-6.4,0-11.7,5.2-11.7,11.7c0,6.4,5.2,11.7,11.7,11.7h64.8c6.4,0,11.7-5.2,11.7-11.7   c0-6.4-5.2-11.7-11.7-11.7H381.1z"/></g></svg>