<?xml version="1.0" encoding="utf-8"?>
<!-- Svg Vector Icons : http://www.onlinewebfonts.com/icon -->
<!DOCTYPE svg PUBLIC "-//W3C//DTD SVG 1.1//EN" "http://www.w3.org/Graphics/SVG/1.1/DTD/svg11.dtd">
<svg version="1.1" xmlns="http://www.w3.org/2000/svg" xmlns:xlink="http://www.w3.org/1999/xlink" x="0px" y="0px" viewBox="0 0 1000 1000" enable-background="new 0 0 1000 1000" xml:space="preserve">
<metadata> Svg Vector Icons : http://www.onlinewebfonts.com/icon </metadata>
<g><g transform="translate(0.000000,511.000000) scale(0.100000,-0.100000)"><path d="M4821.8,3990c-169-24.8-351.5-85.6-495.6-159.9c-198.3-101.4-488.9-387.5-585.7-572.2l-67.6-130.7h-993.5h-991.2l-117.1-58.6c-423.5-211.8-421.3-799.8,6.8-1029.5c87.9-47.3,114.9-49.6,1097.1-56.3l1007-6.8l74.4-139.7c92.4-171.2,324.4-405.5,515.9-518.2c241.1-141.9,414.5-184.7,741.2-184.7c247.8,2.3,301.9,9,446.1,60.8c335.7,121.7,610.5,344.7,779.5,633l87.9,150.9h950.7c1101.6,0,1124.2,2.3,1297.6,178c105.9,105.9,178,270.3,178,407.8c0,198.2-137.4,414.5-319.9,504.6l-117.2,58.6h-991.2h-993.5l-76.6,141.9c-119.4,216.3-383,464.1-612.8,574.5c-103.6,49.6-238.8,101.4-297.4,114.9C5218.3,3987.8,4920.9,4008.1,4821.8,3990z M5265.6,2956c263.6-184.7,286.1-540.7,49.6-750.2c-434.8-383-1052.1,211.8-682.6,657.8C4788,3050.6,5071.9,3093.4,5265.6,2956z"/><path d="M2084.6,1658.4c-54.1-38.3-328.9-450.6-984.5-1482.4C600-610.2,169.7-1292.9,147.1-1337.9c-96.9-182.5-38.3-720.9,119.4-1106.1C458-2914.9,843.3-3324.9,1307.4-3557c443.8-223,1004.8-279.3,1486.9-155.4c860.6,223,1493.6,941.7,1610.8,1824.8c15.8,108.1,22.5,265.8,18,346.9l-6.8,150.9L3461.1,117.4c-698.4,1101.6-975.5,1516.2-1025,1547.7C2336.9,1725.9,2179.2,1721.4,2084.6,1658.4z M2969.9-360.2l693.9-1097.1l-1390-6.8c-763.7-2.2-1394.5,0-1399,4.5c-11.3,11.3,1372,2198.8,1390,2198.8C2271.6,739.2,2589.2,243.6,2969.9-360.2z"/><path d="M7568,1665.1c-49.6-29.3-324.4-446.1-1009.3-1522.9c-518.2-815.5-952.9-1511.7-964.2-1550c-15.8-40.5-18-159.9-11.3-306.4c56.3-977.7,689.4-1752.7,1637.8-2000.5c306.4-81.1,729.9-81.1,1036.3,0c937.2,245.6,1574.7,1016,1637.8,1978c6.7,119.4,6.7,250.1-2.3,292.9c-22.5,117.1-1878.9,3036.8-1973.5,3102.2C7824.8,1721.4,7667.1,1725.9,7568,1665.1z M8437.6-344.4c378.5-597,691.6-1092.6,693.9-1103.9c4.5-11.3-599.2-20.3-1392.3-20.3c-786.2,0-1396.8,9-1392.2,20.3c15.8,40.5,1381,2185.3,1392.2,2187.5C7746,739.2,8059.1,250.3,8437.6-344.4z"/></g></g>
</svg>