<?xml version="1.0" encoding="iso-8859-1"?>
<!-- Generator: Adobe Illustrator 21.1.0, SVG Export Plug-In . SVG Version: 6.00 Build 0)  -->
<svg version="1.1" id="Layer_1" xmlns="http://www.w3.org/2000/svg" xmlns:xlink="http://www.w3.org/1999/xlink" x="0px" y="0px"
	 viewBox="0 0 24 24" enable-background="new 0 0 24 24" xml:space="preserve">
<g>
	<path fill="#303C42" d="M19,9c-2.2055664,0-4-1.7944336-4-4s1.7944336-4,4-4s4,1.7944336,4,4S21.2055664,9,19,9z M19,2
		c-1.6542969,0-3,1.3457031-3,3s1.3457031,3,3,3s3-1.3457031,3-3S20.6542969,2,19,2z"/>
	<path fill="#303C42" d="M5,9C2.7944336,9,1,7.2055664,1,5s1.7944336-4,4-4s4,1.7944336,4,4S7.2055664,9,5,9z M5,2
		C3.3457031,2,2,3.3457031,2,5s1.3457031,3,3,3s3-1.3457031,3-3S6.6542969,2,5,2z"/>
	<path fill="#303C42" d="M19,23c-2.2055664,0-4-1.7944336-4-4s1.7944336-4,4-4s4,1.7944336,4,4S21.2055664,23,19,23z M19,16
		c-1.6542969,0-3,1.3457031-3,3s1.3457031,3,3,3s3-1.3457031,3-3S20.6542969,16,19,16z"/>
	<path fill="#303C42" d="M5,23c-2.2055664,0-4-1.7944336-4-4s1.7944336-4,4-4s4,1.7944336,4,4S7.2055664,23,5,23z M5,16
		c-1.6542969,0-3,1.3457031-3,3s1.3457031,3,3,3s3-1.3457031,3-3S6.6542969,16,5,16z"/>
	<path fill="#303C42" d="M18.1162109,19.8208008c0.090332,0.1074219,0.2216797,0.1723633,0.3618164,0.1782227
		c0.0073242,0.0004883,0.0146484,0.0004883,0.0219727,0.0004883c0.1323242,0,0.2597656-0.0522461,0.3535156-0.1459961l1-1
		c0.0991211-0.0991211,0.1518555-0.2353516,0.1455078-0.3754883c-0.0058594-0.1401367-0.0708008-0.2714844-0.1782227-0.3618164
		C19.7924805,18.0927734,17,15.706543,17,12s2.7924805-6.0927734,2.8208008-6.1162109
		c0.1074219-0.090332,0.1723633-0.2216797,0.1782227-0.3618164c0.0063477-0.1401367-0.0463867-0.2763672-0.1455078-0.3754883l-1-1
		c-0.0991211-0.0991211-0.2304688-0.1547852-0.3754883-0.1455078c-0.1401367,0.0058594-0.2714844,0.0708008-0.3618164,0.1782227
		C18.0927734,4.2075195,15.706543,7,12,7S5.9072266,4.2075195,5.8837891,4.1791992
		C5.793457,4.0717773,5.6621094,4.0068359,5.5219727,4.0009766C5.3842773,3.9916992,5.2456055,4.0473633,5.1464844,4.1464844l-1,1
		C4.0473633,5.2456055,3.9946289,5.3818359,4.0009766,5.5219727C4.0068359,5.6621094,4.0717773,5.793457,4.1791992,5.8837891
		C4.2075195,5.9072266,7,8.293457,7,12s-2.7924805,6.0927734-2.8208008,6.1162109
		c-0.1074219,0.090332-0.1723633,0.2216797-0.1782227,0.3618164c-0.0063477,0.1401367,0.0463867,0.2763672,0.1455078,0.3754883l1,1
		c0.0991211,0.0986328,0.237793,0.1508789,0.3754883,0.1455078c0.1401367-0.0058594,0.2714844-0.0708008,0.3618164-0.1782227
		C5.9072266,19.7924805,8.293457,17,12,17S18.0927734,19.7924805,18.1162109,19.8208008z"/>
	<path fill="#F3F3F3" d="M5.4892578,18.7817383l-0.2709961-0.2709961C6.0742188,17.6445313,8,15.3261719,8,12
		S6.0742188,6.3554688,5.2182617,5.4892578l0.2709961-0.2709961C6.3554688,6.0742188,8.6738281,8,12,8
		s5.6445313-1.9257813,6.5107422-2.7817383l0.2709961,0.2709961C17.9257813,6.3554688,16,8.6738281,16,12
		s1.9257813,5.6445313,2.7817383,6.5107422l-0.2709961,0.2709961C17.6445313,17.9257813,15.3261719,16,12,16
		S6.3554688,17.9257813,5.4892578,18.7817383z"/>
	<circle fill="#303C42" cx="12.0019531" cy="12" r="3"/>
	<circle fill="#E6E6E5" cx="12.0019531" cy="12" r="2"/>
	<path opacity="0.5" fill="#FFFFFF" d="M10.2988281,12.2988281c0-1.1030273,0.8969727-2,2-2
		c0.475769,0,0.9072876,0.1738281,1.2509766,0.4521484c-0.3669434-0.453064-0.9205933-0.7490234-1.5478516-0.7490234
		c-1.1030273,0-2,0.8969727-2,2c0,0.6272583,0.2959595,1.1809082,0.7490234,1.5478516
		C10.4726563,13.2061157,10.2988281,12.7745972,10.2988281,12.2988281z"/>
	<linearGradient id="SVGID_1_" gradientUnits="userSpaceOnUse" x1="12.024231" y1="12.0259399" x2="18.6453857" y2="18.6470947">
		<stop  offset="0" style="stop-color:#010101;stop-opacity:0.1"/>
		<stop  offset="1" style="stop-color:#010101;stop-opacity:0"/>
	</linearGradient>
	<path fill="url(#SVGID_1_)" d="M18.7817383,18.5107422C17.9257813,17.6445313,16,15.3261719,16,12
		c0-0.0765991,0.0135498-0.1454468,0.015564-0.2210083L14.2123413,9.975769l-0.0068359,0.0065918
		c0.4898682,0.5341187,0.7964478,1.2393799,0.7964478,2.0195923c0,1.6542969-1.3457031,3-3,3
		c-0.8153076,0-1.5537109-0.3291016-2.0949707-0.8587036l-0.0018921,0.0018311l1.8707275,1.8707275
		C11.852417,16.0137329,11.9222412,16,12,16c3.3261719,0,5.6445313,1.9257813,6.5107422,2.7817383L18.7817383,18.5107422z"/>
	<linearGradient id="SVGID_2_" gradientUnits="userSpaceOnUse" x1="-0.0559394" y1="6.3782229" x2="24.0559387" y2="17.6217766">
		<stop  offset="0" style="stop-color:#FFFFFF;stop-opacity:0.2"/>
		<stop  offset="1" style="stop-color:#FFFFFF;stop-opacity:0"/>
	</linearGradient>
	<path fill="url(#SVGID_2_)" d="M19,15c-0.4469604,0-0.8695679,0.0905151-1.2712402,0.2263794
		C17.3133545,14.3222656,17,13.2368774,17,12s0.3133545-2.3222656,0.7287598-3.2263794C18.1304321,8.9094849,18.5530396,9,19,9
		c2.2055664,0,4-1.7944336,4-4s-1.7944336-4-4-4s-4,1.7944336-4,4c0,0.4469604,0.0905151,0.8695679,0.2263794,1.2712402
		C14.3222656,6.6866455,13.2368774,7,12,7S9.6777344,6.6866455,8.7736206,6.2712402C8.9094849,5.8695679,9,5.4469604,9,5
		c0-2.2055664-1.7944336-4-4-4S1,2.7944336,1,5s1.7944336,4,4,4c0.4469604,0,0.8695679-0.0905151,1.2712402-0.2263794
		C6.6866455,9.6777344,7,10.7631226,7,12s-0.3133545,2.3222656-0.7287598,3.2263794C5.8695679,15.0905151,5.4469604,15,5,15
		c-2.2055664,0-4,1.7944336-4,4s1.7944336,4,4,4s4-1.7944336,4-4c0-0.4469604-0.0905151-0.8695679-0.2263794-1.2712402
		C9.6777344,17.3133545,10.7631226,17,12,17s2.3222656,0.3133545,3.2263794,0.7287598C15.0905151,18.1304321,15,18.5530396,15,19
		c0,2.2055664,1.7944336,4,4,4s4-1.7944336,4-4S21.2055664,15,19,15z M5,8C3.3457031,8,2,6.6542969,2,5s1.3457031-3,3-3
		s3,1.3457031,3,3c0,0.2781982-0.050293,0.5424194-0.12146,0.7982178c-1.2574463-0.760498-1.9819336-1.6035156-1.994751-1.6190186
		C5.793457,4.0717773,5.6621094,4.0068359,5.5219727,4.0009766C5.3842773,3.9916992,5.2456055,4.0473633,5.1464844,4.1464844l-1,1
		C4.0473633,5.2456055,3.9946289,5.3818359,4.0009766,5.5219727C4.0068359,5.6621094,4.0717773,5.793457,4.1791992,5.8837891
		C4.1947021,5.8966064,5.0377197,6.6210327,5.7982178,7.878479C5.5424194,7.949646,5.2781982,8,5,8z M8,19
		c0,1.6542969-1.3457031,3-3,3s-3-1.3457031-3-3s1.3457031-3,3-3c0.2781982,0,0.5424194,0.050293,0.7982178,0.12146
		c-0.7605591,1.2574463-1.6035156,1.9819336-1.6190186,1.994751c-0.1074219,0.090332-0.1723633,0.2216797-0.1782227,0.3618164
		c-0.0063477,0.1401367,0.0463867,0.2763672,0.1455078,0.3754883l1,1c0.0991211,0.0986328,0.237793,0.1508789,0.3754883,0.1455078
		c0.1401367-0.0058594,0.2714844-0.0708008,0.3618164-0.1782227c0.0128174-0.0155029,0.7373047-0.8584595,1.994751-1.6190186
		C7.949707,18.4575806,8,18.7218018,8,19z M16,5c0-1.6542969,1.3457031-3,3-3s3,1.3457031,3,3s-1.3457031,3-3,3
		c-0.2781982,0-0.5424194-0.050354-0.7982178-0.121521c0.760498-1.2574463,1.6035156-1.9818726,1.6190186-1.9946899
		c0.1074219-0.090332,0.1723633-0.2216797,0.1782227-0.3618164c0.0063477-0.1401367-0.0463867-0.2763672-0.1455078-0.3754883l-1-1
		c-0.0991211-0.0991211-0.2304688-0.1547852-0.3754883-0.1455078c-0.1401367,0.0058594-0.2714844,0.0708008-0.3618164,0.1782227
		c-0.0128174,0.0155029-0.7372437,0.8585205-1.9946899,1.6190186C16.050354,5.5424194,16,5.2781982,16,5z M19,22
		c-1.6542969,0-3-1.3457031-3-3c0-0.2781982,0.050354-0.5424194,0.121521-0.7982178
		c1.2574463,0.760498,1.9818726,1.6035156,1.9946899,1.6190186c0.090332,0.1074219,0.2216797,0.1723633,0.3618164,0.1782227
		c0.0073242,0.0004883,0.0146484,0.0004883,0.0219727,0.0004883c0.1323242,0,0.2597656-0.0522461,0.3535156-0.1459961l1-1
		c0.0991211-0.0991211,0.1518555-0.2353516,0.1455078-0.3754883c-0.0058594-0.1401367-0.0708008-0.2714844-0.1782227-0.3618164
		c-0.0155029-0.0128174-0.8585205-0.7373047-1.6190186-1.994751C18.4575806,16.050293,18.7218018,16,19,16
		c1.6542969,0,3,1.3457031,3,3S20.6542969,22,19,22z"/>
</g>
<g>
</g>
<g>
</g>
<g>
</g>
<g>
</g>
<g>
</g>
<g>
</g>
<g>
</g>
<g>
</g>
<g>
</g>
<g>
</g>
<g>
</g>
<g>
</g>
<g>
</g>
<g>
</g>
<g>
</g>
</svg>
