<svg width="18" height="15" viewBox="0 0 18 15" fill="none" xmlns="http://www.w3.org/2000/svg">
<path d="M1 4.22788L7.60392 8.82927C7.87901 9.02109 8.20229 9.12346 8.53299 9.12346C8.86368 9.12346 9.18697 9.02109 9.46206 8.82927L16.066 4.22788M2.674 13.8506H14.392C14.836 13.8506 15.2617 13.6662 15.5757 13.3381C15.8896 13.01 16.066 12.565 16.066 12.101V3.35309C16.066 2.88908 15.8896 2.44406 15.5757 2.11595C15.2617 1.78785 14.836 1.60352 14.392 1.60352H2.674C2.23003 1.60352 1.80424 1.78785 1.4903 2.11595C1.17637 2.44406 1 2.88908 1 3.35309V12.101C1 12.565 1.17637 13.01 1.4903 13.3381C1.80424 13.6662 2.23003 13.8506 2.674 13.8506Z" stroke="#243F4D" stroke-width="2" stroke-linecap="round" stroke-linejoin="round"/>
</svg>
