<?xml version="1.0" encoding="iso-8859-1"?>
<!-- Generator: Adobe Illustrator 19.1.0, SVG Export Plug-In . SVG Version: 6.00 Build 0)  -->
<svg version="1.1" id="Capa_1" xmlns="http://www.w3.org/2000/svg" xmlns:xlink="http://www.w3.org/1999/xlink" x="0px" y="0px"
	 viewBox="0 0 63.019 63.019" style="enable-background:new 0 0 63.019 63.019;" xml:space="preserve">
<g>
	<g id="group-20svg">
		<path id="path-1_11_" d="M50.052,63.019H12.17c-3.134,0-5.161-2.287-5.161-5.207V5.796C7.009,2.708,9.194,0,12.17,0h25.181
			c0.428,0,0.838,0.183,1.122,0.505l16.944,18.877c0.244,0.275,0.592,0.629,0.592,0.996v37.434
			C56.009,60.781,53.204,63.019,50.052,63.019z M12.17,3c-1.33,0-2.161,1.359-2.161,2.796v52.016c0,1.448,0.875,2.206,2.161,2.206
			h37.882c1.258,0,2.957-0.758,2.957-2.206V20.947L36.676,3H12.17z"/>
		<path id="path-2_10_" d="M33.509,27.508c-0.828,0-1.5-0.672-1.5-1.501V9.002c0-0.828,0.672-1.5,1.5-1.5s1.5,0.672,1.5,1.5v17.005
			C35.009,26.836,34.337,27.508,33.509,27.508z"/>
		<path id="path-3_10_" d="M25.509,27.508c-0.828,0-1.5-0.672-1.5-1.501V9.002c0-0.828,0.672-1.5,1.5-1.5s1.5,0.672,1.5,1.5v17.005
			C27.009,26.836,26.337,27.508,25.509,27.508z"/>
		<path id="path-4_10_" d="M17.509,27.508c-0.828,0-1.5-0.672-1.5-1.501V9.002c0-0.828,0.672-1.5,1.5-1.5c0.828,0,1.5,0.672,1.5,1.5
			v17.005C19.009,26.836,18.337,27.508,17.509,27.508z"/>
	</g>
</g>
<g>
</g>
<g>
</g>
<g>
</g>
<g>
</g>
<g>
</g>
<g>
</g>
<g>
</g>
<g>
</g>
<g>
</g>
<g>
</g>
<g>
</g>
<g>
</g>
<g>
</g>
<g>
</g>
<g>
</g>
</svg>
