<svg width="20" height="26" viewBox="0 0 20 26" fill="none" xmlns="http://www.w3.org/2000/svg">
<g filter="url(#filter0_d)">
<path d="M14.0096 0.236328H5.63956C5.32244 0.236328 5.01831 0.367992 4.79406 0.602356C4.56982 0.83672 4.44385 1.15459 4.44385 1.48603V16.4824C4.44385 16.8138 4.56982 17.1317 4.79406 17.3661C5.01831 17.6004 5.32244 17.7321 5.63956 17.7321H14.0096C14.3267 17.7321 14.6308 17.6004 14.8551 17.3661C15.0793 17.1317 15.2053 16.8138 15.2053 16.4824V1.48603C15.2053 1.15459 15.0793 0.83672 14.8551 0.602356C14.6308 0.367992 14.3267 0.236328 14.0096 0.236328V0.236328ZM10.4224 16.4824H9.22671V15.2327H10.4224V16.4824ZM5.63956 13.983V1.48603H14.0096V13.983H5.63956Z" fill="#243F4D"/>
<path d="M10.4224 16.9824H10.9224V16.4824V15.2327V14.7327H10.4224H9.22671H8.72671V15.2327V16.4824V16.9824H9.22671H10.4224ZM5.13956 13.983V14.483H5.63956H14.0096H14.5096V13.983V1.48603V0.986025H14.0096H5.63956H5.13956V1.48603V13.983ZM5.63956 0.736328H14.0096C14.1868 0.736328 14.3615 0.809699 14.4938 0.948021C14.6269 1.08709 14.7053 1.28024 14.7053 1.48603V16.4824C14.7053 16.6882 14.6269 16.8813 14.4938 17.0204C14.3615 17.1587 14.1868 17.2321 14.0096 17.2321H5.63956C5.46235 17.2321 5.28768 17.1587 5.15533 17.0204C5.02227 16.8813 4.94385 16.6882 4.94385 16.4824V1.48603C4.94385 1.28024 5.02227 1.08709 5.15533 0.948021C5.28768 0.809699 5.46235 0.736328 5.63956 0.736328Z" stroke="#243F4D"/>
</g>
<defs>
<filter id="filter0_d" x="0.443848" y="0.236328" width="18.7614" height="25.4958" filterUnits="userSpaceOnUse" color-interpolation-filters="sRGB">
<feFlood flood-opacity="0" result="BackgroundImageFix"/>
<feColorMatrix in="SourceAlpha" type="matrix" values="0 0 0 0 0 0 0 0 0 0 0 0 0 0 0 0 0 0 127 0"/>
<feOffset dy="4"/>
<feGaussianBlur stdDeviation="2"/>
<feColorMatrix type="matrix" values="0 0 0 0 0 0 0 0 0 0 0 0 0 0 0 0 0 0 0.25 0"/>
<feBlend mode="normal" in2="BackgroundImageFix" result="effect1_dropShadow"/>
<feBlend mode="normal" in="SourceGraphic" in2="effect1_dropShadow" result="shape"/>
</filter>
</defs>
</svg>
