<svg width="12" height="18" viewBox="0 0 12 18" fill="none" xmlns="http://www.w3.org/2000/svg">
<path d="M10.0096 0.236328H1.63956C1.32244 0.236328 1.01831 0.367992 0.794065 0.602356C0.569825 0.83672 0.443848 1.15459 0.443848 1.48603V16.4824C0.443848 16.8138 0.569825 17.1317 0.794065 17.3661C1.01831 17.6004 1.32244 17.7321 1.63956 17.7321H10.0096C10.3267 17.7321 10.6308 17.6004 10.8551 17.3661C11.0793 17.1317 11.2053 16.8138 11.2053 16.4824V1.48603C11.2053 1.15459 11.0793 0.83672 10.8551 0.602356C10.6308 0.367992 10.3267 0.236328 10.0096 0.236328ZM6.42243 16.4824H5.22671V15.2327H6.42243V16.4824ZM1.63956 13.983V1.48603H10.0096V13.983H1.63956Z" fill="white"/>
</svg>
