<svg xmlns="http://www.w3.org/2000/svg">
<path d="M11.2592 9.57033L9.09627 8.85922C8.82961 8.77033 8.74072 8.59255 8.77035 8.29626H8.71109C9.33331 7.70366 9.74813 7.17033 9.74813 6.31107C9.74813 5.18514 8.97776 4.20737 8.02961 4.20737C7.08146 4.20737 6.31109 5.21477 6.31109 6.3407C6.31109 7.19996 6.7259 7.70366 7.34813 8.29626H7.25924C7.28887 8.59255 7.17035 8.77033 6.87405 8.82959L4.71109 9.74811C4.44442 9.86663 4.08887 10.1037 4.08887 10.4V11.5555H11.7926V10.4C11.8518 10.1037 11.5555 9.68885 11.2592 9.57033Z"/>
<path d="M8 16.0296C3.58519 16.0296 0 12.4444 0 8.02963V8C0 3.58519 3.58519 0 8 0C12.4148 0 16 3.58519 16 8V8.02963C16 12.4444 12.4148 16.0296 8 16.0296ZM8 0.592593C3.91111 0.592593 0.592593 3.91111 0.592593 8V8.02963C0.592593 12.1185 3.91111 15.437 8 15.437C12.0889 15.437 15.4074 12.1185 15.4074 8.02963V8C15.4074 3.91111 12.0889 0.592593 8 0.592593Z"/>
</svg>
