<svg height="498pt" viewBox="-59 0 498 498.00079" width="498pt" xmlns="http://www.w3.org/2000/svg"><path d="m262.253906 0h-180.34375c-10.566406-.046875-20.71875 4.117188-28.207031 11.570312-7.488281 7.457032-11.699219 17.585938-11.703125 28.152344v12.917969c-24.160156 3.945313-41.9257812 24.785156-42 49.265625v293.1875c.0742188 24.480469 17.839844 45.320312 42 49.265625v13.917969c.003906 10.566406 4.214844 20.699218 11.703125 28.152344 7.488281 7.453124 17.640625 11.617187 28.207031 11.570312h180.34375c10.546875.039062 20.675782-4.132812 28.140625-11.589844 7.460938-7.457031 11.640625-17.582031 11.605469-28.132812v-13.824219c24.242188-3.867187 42.0625-24.808594 42-49.359375v-32.375c17-.363281 30-13.667969 30-29.984375v-31.390625c0-16.316406-13-29.621094-30-29.984375v-42.359375h5.613281c16.6875-.117188 30.207031-13.578125 30.386719-30.265625v-41.390625c-.171875-16.703125-13.683594-30.195312-30.386719-30.34375h-5.613281v-25.09375c.0625-24.550781-17.757812-45.488281-42-49.359375v-12.824219c.035156-10.546875-4.144531-20.675781-11.605469-28.132812-7.464843-7.457032-17.59375-11.6289065-28.140625-11.589844zm91.746094 301.34375v31.390625c0 5.285156-5 9.613281-10 9.964844v-51.324219c5 .351562 10 4.683594 10 9.96875zm-4.386719-154.34375c5.664063.136719 10.226563 4.679688 10.386719 10.34375v41.390625c-.164062 5.644531-4.738281 10.164063-10.386719 10.265625h-5.613281v-62zm-267.703125-127h180.34375c5.246094-.046875 10.292969 2.015625 14.003906 5.722656 3.714844 3.710938 5.78125 8.753906 5.742188 14v12.277344h-220v-12.277344c-.003906-5.261718 2.097656-10.3125 5.839844-14.015625 3.738281-3.703125 8.804687-5.761719 14.070312-5.707031zm180.34375 458h-180.34375c-5.265625.054688-10.332031-2-14.070312-5.707031-3.742188-3.703125-5.84375-8.75-5.839844-14.015625v-13.277344h220v13.277344c.039062 5.246094-2.027344 10.292968-5.742188 14-3.710937 3.707031-8.757812 5.769531-14.003906 5.722656zm61.746094-83c0 16.570312-13.429688 30-30 30h-244c-16.566406 0-30-13.429688-30-30v-293c0-16.566406 13.433594-30 30-30h244c16.570312 0 30 13.433594 30 30zm0 0"/><path d="m308 98c0-5.523438-4.476562-10-10-10h-252c-5.523438 0-10 4.476562-10 10v301c0 5.523438 4.476562 10 10 10h252c5.523438 0 10-4.476562 10-10zm-252 10h232v281h-232zm0 0"/><path d="m254.21875 216.035156c-1.4375-12.609375-12.144531-22.113281-24.835938-22.035156h-15.59375c-2.582031-.089844-5.089843.878906-6.941406 2.683594-1.847656 1.804687-2.878906 4.289062-2.847656 6.875v22.441406h-62v-22.441406c.03125-2.585938-1-5.070313-2.847656-6.875-1.851563-1.804688-4.359375-2.773438-6.941406-2.683594h-15.59375c-12.691407-.074219-23.398438 9.421875-24.835938 22.03125-13.707031.039062-24.796875 11.171875-24.78125 24.882812v13.699219c-.015625 13.648438 10.976562 24.753907 24.625 24.878907.1875 13.644531 11.34375 24.585937 24.992188 24.507812h15.59375c2.582031.09375 5.089843-.878906 6.941406-2.683594 1.847656-1.804687 2.878906-4.289062 2.847656-6.875v-22.441406h62v22.441406c-.03125 2.585938 1 5.070313 2.847656 6.875 1.851563 1.804688 4.359375 2.777344 6.941406 2.683594h15.59375c13.648438.078125 24.804688-10.863281 24.992188-24.511719 13.648438-.121093 24.640625-11.226562 24.625-24.875v-13.699219c.015625-13.710937-11.074219-24.839843-24.78125-24.878906zm-167.21875 38.578125v-13.699219c.007812-2.773437 2.230469-5.027343 5-5.070312v23.835938c-2.769531-.042969-4.992188-2.296876-5-5.066407zm35 29.386719h-5.382812c-1.253907.082031-2.484376-.386719-3.371094-1.28125-.882813-.894531-1.339844-2.128906-1.246094-3.382812v-60.671876c-.09375-1.253906.363281-2.488281 1.246094-3.382812.886718-.894531 2.117187-1.359375 3.371094-1.28125h5.382812zm20-32v-6h62v6zm92 27.335938c.09375 1.253906-.359375 2.488281-1.246094 3.382812-.886718.894531-2.113281 1.363281-3.371094 1.28125h-5.382812v-70h5.382812c1.257813-.078125 2.484376.386719 3.371094 1.28125.886719.894531 1.339844 2.128906 1.246094 3.382812zm25-24.722657c-.003906 2.769531-2.230469 5.023438-5 5.066407v-23.832032c2.769531.042969 4.996094 2.296875 5 5.066406zm0 0"/></svg>